<?xml version="1.0" encoding="utf-8"?>
<!-- Generator: Adobe Illustrator 16.0.0, SVG Export Plug-In . SVG Version: 6.00 Build 0)  -->
<!DOCTYPE svg PUBLIC "-//W3C//DTD SVG 1.1//EN" "http://www.w3.org/Graphics/SVG/1.1/DTD/svg11.dtd">
<svg version="1.1" id="Layer_1" xmlns="http://www.w3.org/2000/svg" xmlns:xlink="http://www.w3.org/1999/xlink" x="0px" y="0px"
	 width="104.467px" height="33.922px" viewBox="0 0 104.467 33.922" enable-background="new 0 0 104.467 33.922"
	 xml:space="preserve">
<g>
	<polygon fill="#FFFFFF" stroke="#000000" stroke-width="1.92" points="38.961,0.96 103.38,0.96 99.373,32.962 35.021,32.962 	"/>
	<g>
		<g>
			<path d="M61.218,10.636c0.068-0.897,0.276-2.35,1.935-2.35c1.659,0,1.521,1.452,1.382,2.35l-1.589,12.442
				c0,0.622-0.208,2.281-1.866,2.281c-1.659,0-1.451-1.659-1.383-2.281L61.218,10.636z"/>
			<path d="M66.816,27.226V4.415c-0.898-0.346-1.935-0.553-3.109-0.553c-4.286,0-7.742,2.351-8.364,7.189L53.96,22.525
				c-0.553,4.493,2.004,7.326,6.566,7.326C63.153,29.852,65.365,28.884,66.816,27.226z"/>
		</g>
	</g>
	<polygon points="69.236,29.506 75.111,29.506 76.424,18.931 82.162,18.931 82.714,14.093 77.046,14.093 77.668,9.047 84.028,9.047 
		84.649,4.069 72.416,4.069 	"/>
	<polygon points="83.613,9.047 87.416,9.047 84.857,29.506 90.664,29.506 93.22,9.047 96.883,9.047 97.575,4.069 84.235,4.069 	"/>
	<path d="M37.233,29.506h3.663c3.732,0,2.903,0,3.249,0c5.944,0.07,8.71-2.073,9.192-5.392c0.208-1.175-0.207-2.972-2.004-6.151
		c-1.659-2.833-4.284-6.358-4.563-7.673c-0.207-0.828-0.068-1.935,2.282-1.728c0.275,0-0.416,0,1.52,0h2.558l0.898-4.839h-2.212
		c-2.834,0,0,0-4.839,0c-4.492,0-5.321,2.212-5.875,4.148c-1.104,3.801,1.729,6.566,3.249,8.984
		c1.797,2.904,3.456,5.046,2.903,6.567c-0.346,1.244-1.936,1.175-3.249,1.175c-1.521,0-1.728,0-3.387,0h-2.765L37.233,29.506z"/>
	<polygon stroke="#000000" stroke-width="1.92" points="4.954,0.96 40.067,0.96 36.196,32.962 1.083,32.962 	"/>
	<polygon fill="#FFFFFF" points="7.234,29.368 13.248,29.368 16.566,21.212 16.635,21.212 18.086,29.368 24.238,29.368 
		20.92,15.958 27.004,4.069 20.989,4.069 18.086,11.259 18.017,11.259 16.843,4.069 10.622,4.069 13.801,15.751 	"/>
	<polygon fill="#FFFFFF" points="25.828,29.506 37.44,29.506 38.063,24.668 31.979,24.668 34.33,4.14 28.8,4.14 	"/>
	<path d="M57.609,6.864l-0.56,22.08c0.898,0.346,1.945,0.8,3.12,0.8c4.285,0,7.839-2,8.509-6.993l1.383-11.474
		c0.553-4.493-1.813-7.533-6.566-7.327C60.774,3.95,58.607,5.724,57.609,6.864z"/>
	<path fill="#FFFFFF" d="M62.803,23.165c-0.069,0.899-0.278,2.351-1.936,2.351c-1.659,0-1.521-1.451-1.382-2.351l1.588-12.441
		c0-0.622,0.209-2.281,1.867-2.281c1.659,0,1.451,1.659,1.383,2.281L62.803,23.165z"/>
</g>
</svg>
